# xmcd
# 
# Track frame offsets:
#     150
#     77385
#     148272
# 
# Disc length: 3058
# 
# Revision: 5
# Processed by: cddbd v1.5.2PL0 Copyright (c) Steve Scherf et al.
# Submitted via: fre:ac v1.0.27
# 
DISCID=1e0bf003
DTITLE=Keith Jarrett - Eyes of the Heart
DYEAR=1979
DGENRE=Jazz
TTITLE0=Eyes of the Heart (Part One)
TTITLE1=Eyes of the Heart (Part Two)
TTITLE2=Encore (a-b-c)
EXTD=YEAR: 1979
EXTT0=
EXTT1=
EXTT2=
PLAYORDER=
